<?xml version="1.0" encoding="utf-8"?>
<!-- Generator: Adobe Illustrator 25.0.0, SVG Export Plug-In . SVG Version: 6.00 Build 0)  -->
<svg version="1.2" baseProfile="tiny" id="图层_1"
	 xmlns="http://www.w3.org/2000/svg" xmlns:xlink="http://www.w3.org/1999/xlink" x="0px" y="0px" viewBox="0 0 16 16"
	 overflow="visible" xml:space="preserve">
<path fill="#F4DE29" d="M7.8,0.1c0.7-0.2,1.5,0.2,1.7,0.9c0.3,0.7,0.1,1.6-0.6,2C8.3,3.3,7.5,3.2,7,2.6C6.5,2.1,6.4,1.3,6.8,0.7
	C7,0.4,7.4,0.2,7.8,0.1z"/>
<path fill="#93E0FF" d="M7,3.4c0.2-0.1,0.4-0.1,0.6-0.1C8.1,3.5,8.4,3.8,8.8,4c0.5,0.9,1.1,1.8,1.6,2.7c0.5,0.1,1,0.2,1.5,0.3
	c-0.1,0.2,0,0.5,0.1,0.7c0.2,0.3,0.6,0.5,1,0.4c0.2,0,0.3-0.1,0.4-0.3c-0.1,0.3-0.3,0.5-0.6,0.5c-1-0.2-1.9-0.4-2.9-0.6
	c-0.2,0-0.3-0.1-0.4-0.3C9.3,7.1,9,6.6,8.7,6.1C8.6,7,8.4,7.9,8.3,8.7c0,0.3-0.1,0.6-0.2,0.9c0.4,0.3,0.9,0.6,1.3,0.9
	C9.2,10.6,9,10.9,9,11.2C9,11.6,9.4,12,9.7,12c0.2,0,0.5,0,0.7-0.1c0.3,0.8,0.5,1.6,0.8,2.4c-0.4,0-0.8,0.3-0.9,0.7
	c-0.1,0.4,0.1,0.8,0.5,1c-0.3,0-0.6,0-0.8-0.3c-0.2-0.2-0.2-0.5-0.3-0.7c-0.3-1-0.7-2-1-3c-0.7-0.5-1.3-0.9-2-1.4
	c0,0.3-0.1,0.6-0.1,0.9c-0.3-0.1-0.6-0.1-0.9,0.1c-0.3,0.2-0.4,0.6-0.4,0.9c0.1,0.3,0.3,0.5,0.5,0.6c-0.3,0.4-0.6,0.8-1,1.2
	c-0.1,0.1-0.1,0.2-0.2,0.2c-0.1,0-0.1-0.1-0.2-0.2c-0.3-0.2-0.6-0.2-0.9-0.1C3.2,14.4,3,14.8,3,15.1c0,0.2,0.1,0.4,0.3,0.6
	c-0.3,0-0.6-0.1-0.7-0.4c-0.1-0.3,0-0.5,0.2-0.8c0.6-0.9,1.3-1.8,1.9-2.6c0-0.1,0.1-0.1,0.1-0.2C5,10.8,5.1,9.9,5.3,9
	c0.1-0.3,0.1-0.6,0.1-0.9c0.1-1,0.3-1.9,0.5-2.9C5.5,5.5,5.2,5.7,4.8,5.9c0,0-0.1,0.1-0.1,0.1C4.5,6.3,4.4,6.6,4.2,7
	C4,6.8,3.7,6.8,3.5,6.9C3.1,7,2.9,7.4,2.9,7.8C2.9,8,3,8.2,3.2,8.3C3,8.3,2.9,8.3,2.8,8.2C2.6,8,2.5,7.7,2.7,7.5
	C3.1,6.7,3.5,6,3.9,5.2c0,0,0-0.1,0.1-0.1C5,4.6,6,4,7,3.4z"/>
<path fill="#93E0FF" d="M12.6,6.7c0.4-0.1,0.8,0.1,0.9,0.5C13.5,7.6,13.2,8,12.8,8c-0.3,0-0.7-0.2-0.7-0.6
	C12.1,7.1,12.3,6.8,12.6,6.7z M12.7,7.2c-0.1,0-0.2,0.2-0.1,0.3c0.1,0.1,0.3,0.1,0.4,0C13.1,7.3,12.9,7.1,12.7,7.2z"/>
<path fill="#93E0FF" d="M3.6,7.1C4,7,4.4,7.2,4.4,7.6c0.1,0.3-0.2,0.7-0.5,0.8C3.5,8.4,3.2,8.2,3.1,7.8C3.1,7.5,3.3,7.2,3.6,7.1z
	 M3.7,7.5c-0.1,0.1-0.2,0.3,0,0.4C3.8,8,4,7.9,4,7.8C4,7.6,3.8,7.4,3.7,7.5z"/>
<path fill="#93E0FF" d="M9.7,10.6c0.4-0.1,0.8,0.1,0.8,0.5c0.1,0.3-0.2,0.7-0.5,0.8c-0.3,0.1-0.7-0.2-0.8-0.5
	C9.2,11,9.4,10.6,9.7,10.6z M9.8,11c-0.1,0.1-0.1,0.3,0,0.4c0.1,0.1,0.3,0,0.3-0.1C10.2,11.1,9.9,10.9,9.8,11z"/>
<path fill="#93E0FF" d="M6,11.7c0.4-0.1,0.8,0.1,0.8,0.5c0.1,0.3-0.2,0.7-0.5,0.8c-0.4,0.1-0.7-0.2-0.8-0.5
	C5.4,12.1,5.7,11.8,6,11.7z M6,12.1c-0.1,0.1-0.2,0.3,0,0.4c0.1,0.1,0.3,0,0.3-0.2C6.4,12.2,6.2,12,6,12.1z"/>
<path fill="#93E0FF" d="M3.7,14.4c0.3-0.1,0.7,0.1,0.8,0.4c0.1,0.3-0.1,0.7-0.4,0.8c-0.3,0.1-0.7,0-0.9-0.4
	C3.1,15,3.3,14.5,3.7,14.4z M3.8,14.9c-0.1,0.1-0.1,0.3,0,0.4C4,15.3,4.1,15.2,4.1,15C4.1,14.9,3.9,14.8,3.8,14.9z"/>
<path fill="#93E0FF" d="M11,14.6c0.4-0.1,0.8,0.2,0.8,0.6c0,0.4-0.3,0.7-0.7,0.7c-0.3,0-0.6-0.3-0.6-0.6
	C10.5,14.9,10.7,14.6,11,14.6z M11.1,15c-0.2,0.1-0.2,0.3-0.1,0.4c0.1,0.1,0.3,0,0.3-0.1C11.4,15.1,11.2,14.9,11.1,15z"/>
</svg>
