<?xml version="1.0" encoding="utf-8"?>
<!-- Generator: Adobe Illustrator 25.0.0, SVG Export Plug-In . SVG Version: 6.00 Build 0)  -->
<svg version="1.2" baseProfile="tiny" id="图层_1"
	 xmlns="http://www.w3.org/2000/svg" xmlns:xlink="http://www.w3.org/1999/xlink" x="0px" y="0px" viewBox="0 0 40 40"
	 overflow="visible" xml:space="preserve">
<path fill="#787878" d="M37.6,9H2.4c-0.6,0-1-0.4-1-1V7.5c0-0.6,0.4-1,1-1h35.1c0.6,0,1,0.4,1,1V8C38.6,8.6,38.1,9,37.6,9z"/>
<circle fill="none" stroke="#787878" stroke-width="1.5" stroke-miterlimit="10" cx="20" cy="4.2" r="3.2"/>
<rect x="9.8" y="20.9" fill="#84ACBD" width="3.7" height="13.8"/>
<path fill="none" stroke="#787878" stroke-width="2.7" stroke-miterlimit="10" d="M32.7,38.9H7.3c-1.1,0-2-0.9-2-2V14.2
	c0-1.1,0.9-2,2-2h25.5c1.1,0,2,0.9,2,2v22.7C34.7,38,33.8,38.9,32.7,38.9z"/>
<rect x="26.5" y="16.6" fill="#84ACBD" width="3.7" height="18.1"/>
<rect x="18.2" y="18.7" fill="#84ACBD" width="3.7" height="16"/>
</svg>
