<?xml version="1.0" encoding="utf-8"?>
<!-- Generator: Adobe Illustrator 25.0.0, SVG Export Plug-In . SVG Version: 6.00 Build 0)  -->
<svg version="1.2" baseProfile="tiny" id="图层_1"
	 xmlns="http://www.w3.org/2000/svg" xmlns:xlink="http://www.w3.org/1999/xlink" x="0px" y="0px" viewBox="0 0 16 16"
	 overflow="visible" xml:space="preserve">
<path display="none" fill="#646464" d="M14.3,7.5c-0.6-0.7-1.2-1.4-1.9-2c-1.6-1.3-3.2-2-4.7-2c-3.6,0-6.5,3.8-6.6,4
	C1,7.7,1,7.9,1.1,8.1c0.6,0.7,1.2,1.4,1.9,2c1.6,1.3,3.2,2,4.7,2c3.6,0,6.5-3.8,6.6-4C14.4,7.9,14.4,7.7,14.3,7.5z M7.7,11.1
	c-2.6,0-4.9-2.5-5.6-3.3c0.7-0.9,3-3.3,5.6-3.3s4.9,2.5,5.6,3.3C12.6,8.6,10.3,11.1,7.7,11.1z"/>
<path display="none" fill="#646464" d="M7.7,5.4c-1.3,0-2.4,1.1-2.4,2.4s1.1,2.4,2.4,2.4s2.4-1.1,2.4-2.4S9,5.4,7.7,5.4z M7.7,9.2
	c-0.8,0-1.4-0.6-1.4-1.4s0.6-1.4,1.4-1.4S9.1,7,9.1,7.8C9.1,8.6,8.5,9.2,7.7,9.2z"/>
<path fill="#596464" d="M8,2.8c2.8,0,5.4,1.4,7.6,4.3c0.4,0.5,0.4,1.3,0,1.9l-0.2,0.2c-2.2,2.6-4.7,4-7.4,4c-2.8,0-5.4-1.4-7.6-4.3
	C0,8.4,0,7.6,0.4,7.1l0.2-0.2C2.8,4.2,5.3,2.8,8,2.8z M8,4.3c-2.3,0-4.3,1.1-6.3,3.5L1.5,8l0.2,0.2c1.9,2.3,4,3.5,6.3,3.5
	c2.3,0,4.3-1.1,6.3-3.5L14.5,8l-0.2-0.2C12.3,5.4,10.3,4.3,8,4.3z M8,5.8c1.2,0,2.2,1,2.2,2.2s-1,2.2-2.2,2.2S5.8,9.2,5.8,8
	S6.8,5.8,8,5.8z M8,7.3C7.6,7.3,7.3,7.6,7.3,8c0,0.4,0.3,0.7,0.7,0.7c0.4,0,0.7-0.3,0.7-0.7C8.7,7.6,8.4,7.3,8,7.3z"/>
</svg>
