<?xml version="1.0" encoding="utf-8"?>
<!-- Generator: Adobe Illustrator 25.0.0, SVG Export Plug-In . SVG Version: 6.00 Build 0)  -->
<svg version="1.2" baseProfile="tiny" id="图层_1"
	 xmlns="http://www.w3.org/2000/svg" xmlns:xlink="http://www.w3.org/1999/xlink" x="0px" y="0px" viewBox="0 0 16 16"
	 overflow="visible" xml:space="preserve">
<path fill="#817878" d="M15.8,7.6L8.1,0.5C8,0.4,7.7,0.4,7.6,0.5L0.2,7.6C-0.1,8,0.4,8.6,0.8,8.2l7-6.8l7.4,6.8
	C15.7,8.5,16.2,8,15.8,7.6z"/>
<path fill="#787878" d="M13.1,6.2v8c0,0.2,0.1,0.6-0.2,0.6H3.1c-0.2,0-0.2-0.3-0.2-0.5v-1.4V9.1V6.2c0-0.5-0.8-0.5-0.8,0v8
	c0,0.4,0,0.8,0.2,1c0.3,0.3,0.6,0.3,0.9,0.3h9.3c0.3,0,0.7,0,0.9-0.2c0.3-0.3,0.3-0.7,0.3-1.1v-3.4V6.2C13.9,5.7,13.1,5.7,13.1,6.2z
	"/>
<path fill="none" stroke="#93E0FF" stroke-width="0.75" stroke-miterlimit="10" d="M6,14.7V8.8c0-0.1,0-0.1,0.1-0.1h3.8
	C10,8.7,10,8.8,10,8.8v5.9"/>
</svg>
