<?xml version="1.0" encoding="utf-8"?>
<!-- Generator: Adobe Illustrator 25.0.0, SVG Export Plug-In . SVG Version: 6.00 Build 0)  -->
<svg version="1.2" baseProfile="tiny" id="图层_1"
	 xmlns="http://www.w3.org/2000/svg" xmlns:xlink="http://www.w3.org/1999/xlink" x="0px" y="0px" viewBox="0 0 14 14"
	 overflow="visible" xml:space="preserve">
<path fill="#93E0FF" d="M10.2,1.7C10.1,1.6,10,1.5,9.8,1.5L4.4,0.7C4.1,0.6,3.8,0.8,3.7,1L0.2,7.3C0,7.5,0.1,7.8,0.2,8l3.5,4.3
	c0.1,0.1,0.3,0.2,0.4,0.2l5.5,0.8c0.3,0,0.6-0.1,0.7-0.3l3.5-6.2C14,6.5,13.9,6.2,13.8,6L10.2,1.7z M9.7,2.1l3.1,3.7L8,5.2L4.9,1.5
	L9.7,2.1z M4,11.6l-3.2-4l3.4-6l3.2,4L4,11.6z M9.7,12.6l-5.1-0.7l3.4-6l5.1,0.7L9.7,12.6z"/>
</svg>
