<?xml version="1.0" encoding="utf-8"?>
<!-- Generator: Adobe Illustrator 25.0.0, SVG Export Plug-In . SVG Version: 6.00 Build 0)  -->
<svg version="1.2" baseProfile="tiny" id="图层_1"
	 xmlns="http://www.w3.org/2000/svg" xmlns:xlink="http://www.w3.org/1999/xlink" x="0px" y="0px" viewBox="0 0 16 16"
	 overflow="visible" xml:space="preserve">
<path fill="#6E6E6E" d="M1.1,4.3c0,0.3-0.3,0.5-0.5,0.5S0,4.5,0,4.3V1.1C0,0.5,0.5,0,1.1,0h3.3c0.3,0,0.5,0.3,0.5,0.5
	S4.7,1.1,4.4,1.1H1.1C1.1,1.1,1.1,4.3,1.1,4.3z M11.9,1.1c-0.3,0-0.5-0.3-0.5-0.5S11.6,0,11.9,0h3.2C15.5,0,16,0.5,16,1.1v3.2
	c0,0.3-0.3,0.5-0.5,0.5s-0.5-0.3-0.5-0.5V1.1C14.9,1.1,11.9,1.1,11.9,1.1z M14.9,11.9c0-0.3,0.3-0.5,0.5-0.5s0.5,0.3,0.5,0.5v3.1
	c0,0.5-0.5,1.1-1.1,1.1h-3.2c-0.3,0-0.5-0.3-0.5-0.5s0.3-0.5,0.5-0.5h3.2C14.9,14.9,14.9,11.9,14.9,11.9z M4.3,14.9
	c0.3,0,0.5,0.3,0.5,0.5S4.5,16,4.3,16H1.1C0.5,16,0,15.5,0,14.9v-3.2c0-0.3,0.3-0.5,0.5-0.5s0.5,0.3,0.5,0.5v3.2
	C1.1,14.9,4.3,14.9,4.3,14.9z M8,4.1c-4.4,0-6.7,4.1-6.7,4.1S3.9,12,8,12s6.7-3.7,6.7-3.7S12.7,4.1,8,4.1z M8,10.4
	c-1.3,0-2.4-1.1-2.4-2.4S6.7,5.6,8,5.6s2.4,1.1,2.4,2.4S9.3,10.4,8,10.4z M8,7.1c-0.5,0-1.1,0.5-1.1,1.1c0,0.5,0.5,1.1,1.1,1.1
	s1.1-0.5,1.1-1.1C9.1,7.5,8.5,7.1,8,7.1z"/>
</svg>
