<?xml version="1.0" encoding="utf-8"?>
<!-- Generator: Adobe Illustrator 25.0.0, SVG Export Plug-In . SVG Version: 6.00 Build 0)  -->
<svg version="1.2" baseProfile="tiny" id="图层_1"
	 xmlns="http://www.w3.org/2000/svg" xmlns:xlink="http://www.w3.org/1999/xlink" x="0px" y="0px" viewBox="0 0 50 50"
	 overflow="visible" xml:space="preserve">
<path fill="#787878" d="M41.5,8.4L28.5,1c-2.1-1.3-4.8-1.3-6.9,0l-13,7.4c-1.3,0.8-2.1,2.4-2.1,3.7v16.2c0,1.6,0.8,2.9,2.1,3.7
	l13,7.4c2.1,1.3,4.8,1.3,6.9,0l13-7.4c1.3-0.8,2.1-2.1,2.1-3.7V12.2C43.7,10.8,42.9,9.2,41.5,8.4z M41.5,28.9c0,0.5-0.3,1.1-0.8,1.4
	L27.3,38c-1.4,0.8-3,0.8-4.4,0L9.5,30.3C9,30,8.7,29.5,8.7,28.9v-17c0-0.5,0.3-1.1,0.8-1.4l13.4-7.7c1.4-0.8,3-0.8,4.4,0l13.4,7.7
	c0.5,0.3,0.8,0.8,0.8,1.4C41.5,11.9,41.5,28.9,41.5,28.9z"/>
<path fill="#84ACBD" stroke="#84ACBD" stroke-width="2" stroke-miterlimit="10" d="M37.8,13.1c0.3,0.6,0,1.4-0.6,2l-2.3,1.2
	l-8.4,4.1v13c0,0.9-0.6,1.4-1.4,1.4c-0.9,0-1.4-0.6-1.4-1.4V20.7v-0.3l-8.4-4.1L13,14.9c-0.6-0.3-0.9-1.2-0.6-1.7
	c0.3-0.6,1.2-1.2,2-0.6l2.3,1.2l8.4,4.3l8.4-4.3l2.3-1.2C36.6,12,37.5,12.3,37.8,13.1z"/>
<path fill="#84ACBD" d="M47.9,30.9l-2.1-0.5c-1,4.3-3.3,7.8-6.9,10.6c-3,2.3-6.1,3.5-9.4,3.7l-0.1-2.9l-8.1,4.4l8.3,3.9l-0.1-3.2
	c3.8-0.1,7.3-1.5,10.7-4.1c3.9-3,6.5-6.9,7.7-11.5V30.9L47.9,30.9z"/>
<circle fill="#84ACBD" cx="17.1" cy="45.6" r="1.7"/>
<circle fill="#84ACBD" cx="8.5" cy="42.3" r="2.1"/>
<circle fill="#84ACBD" cx="3.4" cy="34.4" r="2.3"/>
</svg>
