<?xml version="1.0" encoding="utf-8"?>
<!-- Generator: Adobe Illustrator 25.0.0, SVG Export Plug-In . SVG Version: 6.00 Build 0)  -->
<svg version="1.2" baseProfile="tiny" id="图层_1"
	 xmlns="http://www.w3.org/2000/svg" xmlns:xlink="http://www.w3.org/1999/xlink" x="0px" y="0px" viewBox="0 0 40 40"
	 overflow="visible" xml:space="preserve">
<path fill="#817878" d="M14.8,5.8l0.8,1.3C16.3,8.3,17.6,9.1,19,9c0.6,0,1.2,0,1.8,0c1.4,0.1,2.8-0.6,3.5-1.8l0.8-1.3l4.6,2.7
	l-0.8,1.3c-0.7,1.2-0.6,2.8,0.2,3.9c0.2,0.3,0.3,0.5,0.5,0.7c0.1,0.2,0.3,0.5,0.4,0.8c0.6,1.3,1.9,2.1,3.3,2.1l1.5,0l0,5.3l-1.5,0
	c-1.4,0-2.7,0.8-3.3,2.1c-0.2,0.5-0.5,1-0.9,1.5c-0.8,1.2-0.9,2.7-0.1,3.9l0.8,1.3l-4.5,2.6l-0.8-1.3c-0.7-1.2-2.1-1.9-3.5-1.8
	c-0.6,0-1.2,0-1.8,0c-1.4-0.1-2.8,0.6-3.5,1.8l-0.8,1.3l-4.6-2.7l0.8-1.3c0.7-1.2,0.6-2.8-0.2-3.9c-0.2-0.3-0.3-0.5-0.5-0.7
	s-0.3-0.5-0.4-0.8c-0.6-1.3-1.9-2.1-3.3-2.1l-1.5,0l0-5.3l1.5,0c1.4,0,2.7-0.8,3.3-2.1c0.2-0.5,0.5-1,0.9-1.5
	c0.8-1.2,0.9-2.7,0.1-3.9l-0.8-1.3L14.8,5.8 M23.6,26.2c0.5-0.3,0.9-0.6,1.3-1c2-1.9,2.8-4.8,2-7.4c-0.7-2.1-2.2-3.8-4.3-4.6
	c-2-0.8-4.3-0.6-6.2,0.5c-0.5,0.3-0.9,0.6-1.3,1c-2,1.9-2.8,4.8-2,7.4c0.7,2.1,2.2,3.8,4.3,4.6C19.4,27.5,21.7,27.3,23.6,26.2
	 M15.3,2L6.8,6.9c-0.3,0.2-0.4,0.6-0.3,1l1.9,3.3c0.1,0.2,0.1,0.5,0,0.8c-0.4,0.6-0.8,1.3-1.1,1.9c-0.1,0.1-0.2,0.2-0.3,0.3
	c-0.1,0.1-0.2,0.1-0.3,0.1l-3.8,0c-0.1,0-0.2,0-0.3,0.1c-0.2,0.1-0.4,0.4-0.4,0.6l0,9.9c0,0.4,0.3,0.7,0.7,0.7l3.8,0
	c0.3,0,0.5,0.2,0.6,0.4c0.2,0.3,0.3,0.7,0.5,1c0.2,0.3,0.4,0.6,0.6,1c0.2,0.2,0.2,0.5,0,0.7L6.6,32c-0.2,0.3-0.1,0.8,0.3,1l8.5,4.9
	c0.2,0.1,0.5,0.1,0.7,0c0.1-0.1,0.2-0.1,0.3-0.3l1.9-3.3c0.1-0.1,0.1-0.2,0.2-0.3c0.1-0.1,0.3-0.1,0.4-0.1c0.7,0.1,1.5,0.1,2.2,0
	c0.3,0,0.5,0.1,0.7,0.4l1.9,3.3c0.2,0.3,0.6,0.5,1,0.3l8.5-4.9c0.3-0.2,0.4-0.6,0.3-1l-1.9-3.3c-0.1-0.2-0.1-0.5,0-0.8
	c0.4-0.6,0.8-1.3,1.1-1.9c0.1-0.1,0.2-0.2,0.3-0.3c0.1-0.1,0.2-0.1,0.3-0.1l3.8,0c0.1,0,0.2,0,0.3-0.1c0.2-0.1,0.3-0.4,0.3-0.6
	l0-9.8c0-0.4-0.3-0.7-0.7-0.7l-3.8,0c-0.3,0-0.5-0.2-0.6-0.4c-0.2-0.3-0.3-0.7-0.5-1c-0.2-0.3-0.4-0.6-0.6-1c-0.2-0.2-0.2-0.5,0-0.7
	L33.3,8c0.2-0.3,0.1-0.8-0.3-1l-8.5-5c-0.2-0.1-0.5-0.1-0.7,0c-0.1,0.1-0.2,0.2-0.3,0.3l-1.9,3.3c-0.1,0.1-0.1,0.2-0.2,0.3
	C21.3,6,21.2,6,21.1,6c-0.7-0.1-1.5-0.1-2.2,0c-0.3,0-0.5-0.1-0.7-0.4l-1.9-3.3C16,2,15.6,1.9,15.3,2z M22.1,23.7
	c-2,1.2-4.6,0.4-5.8-1.6c-1-1.7-0.6-3.8,0.8-5.1c0.2-0.2,0.5-0.4,0.8-0.6c2-1.2,4.6-0.4,5.8,1.6c1,1.7,0.6,3.8-0.8,5.1
	C22.6,23.3,22.4,23.5,22.1,23.7z"/>
</svg>
