<?xml version="1.0" encoding="utf-8"?>
<!-- Generator: Adobe Illustrator 25.0.0, SVG Export Plug-In . SVG Version: 6.00 Build 0)  -->
<svg version="1.2" baseProfile="tiny" id="图层_1"
	 xmlns="http://www.w3.org/2000/svg" xmlns:xlink="http://www.w3.org/1999/xlink" x="0px" y="0px" viewBox="0 0 14 14"
	 overflow="visible" xml:space="preserve">
<path fill="#93E0FF" d="M0.7,13c-0.4-0.4-0.6-0.9-0.6-1.4c0-1.1,0.9-2,1.4-2.4c0.1-0.1,0.1-0.1,0.1-0.5c0-0.3,0-0.6,0-1.1
	C1.8,6.4,3,5.5,4.4,5.6C5.3,5.7,5.7,6.5,6,7c0.1,0.1,0.2,0.3,0.2,0.4C7.6,7.9,8.5,9,8.4,10.4c-0.1,1.4-1.6,2-2.3,2H5.9
	c-0.6,0-1.1,0-1.5,0.6c-0.6,0.8-1.3,1-1.8,1C2,14,1.4,13.6,0.7,13z M6,11.3c0.3,0,1.2-0.3,1.2-1c0.1-0.8-0.5-1.5-1.4-1.8
	C5.5,8.3,5.2,7.9,5,7.5C4.8,7,4.6,6.7,4.3,6.7C3.6,6.6,2.8,7,2.7,7.8c0,0.3,0,0.6,0,0.8c0,0.4,0.1,0.9-0.5,1.4c-0.3,0.3-1,1-1,1.6
	c0,0.2,0.1,0.4,0.3,0.6c0.8,0.8,1.4,0.8,2,0.1c0.8-1,1.9-1,2.4-1L6,11.3L6,11.3z M9.6,8.4C8.7,8.4,8.3,7.5,8,7
	C7.9,6.9,7.8,6.7,7.8,6.6C6.4,6.2,5.5,5,5.6,3.7c0.1-1.4,1.6-2,2.3-2h0.1c0.6,0,1.1,0,1.5-0.6c0.6-0.8,1.3-1,1.8-1
	c0.6,0,1.3,0.3,1.9,0.9c0.4,0.4,0.6,0.9,0.6,1.4c0,1.1-0.9,2-1.4,2.4c-0.1,0.1-0.1,0.1-0.1,0.5c0,0.4,0,0.7,0,1.1
	c-0.2,1.2-1.2,2.1-2.5,2.1C9.8,8.5,9.7,8.4,9.6,8.4z M10.5,1.7c-0.8,1-1.9,1-2.4,1H8c-0.3,0-1.2,0.3-1.2,1C6.7,4.6,7.2,5.3,8.1,5.6
	C8.6,5.7,8.8,6.1,9,6.5C9.2,7,9.4,7.3,9.7,7.3c0.7,0.1,1.5-0.3,1.6-1.1c0-0.4,0-0.6,0-0.8c0-0.4-0.1-0.9,0.5-1.4c0.3-0.3,1-1,1-1.6
	c0-0.2-0.1-0.4-0.3-0.6c-0.4-0.4-0.8-0.6-1.1-0.6C11.1,1.2,10.8,1.4,10.5,1.7z"/>
</svg>
