<?xml version="1.0" standalone="no"?><!DOCTYPE svg PUBLIC "-//W3C//DTD SVG 1.1//EN" "http://www.w3.org/Graphics/SVG/1.1/DTD/svg11.dtd"><svg t="1696666711763" class="icon" viewBox="0 0 1024 1024" version="1.1" xmlns="http://www.w3.org/2000/svg" p-id="22865" xmlns:xlink="http://www.w3.org/1999/xlink" width="48" height="48"><path d="M1017.488384 520.4992c-2.4064-2.7136-60.5184-66.816-151.3472-131.6864-53.6064-38.2976-107.52-68.8128-160.256-90.7776-66.816-27.8528-132.0448-41.984-193.8432-41.984s-127.0272 14.1312-193.8432 41.984c-52.736 21.9648-106.6496 52.5312-160.256 90.7776C67.113984 453.6832 9.001984 517.8368 6.595584 520.4992a25.6 25.6 0 0 0 0 34.2528c2.4064 2.7136 60.5184 66.816 151.3472 131.6864 53.6064 38.2976 107.52 68.8128 160.256 90.7776 66.816 27.8528 132.0448 41.984 193.8432 41.984s127.0272-14.1312 193.8432-41.984c52.736-21.9648 106.6496-52.5312 160.256-90.7776 90.8288-64.8704 148.9408-129.024 151.3472-131.6864a25.6 25.6 0 0 0 0-34.2528z m-373.6576-190.8736A203.9296 203.9296 0 0 1 716.841984 486.4c0 112.9472-91.8528 204.8-204.8 204.8s-204.8-91.8528-204.8-204.8c0-60.8256 26.5728-117.7088 73.0112-156.7744C422.339584 315.904 466.832384 307.2 512.041984 307.2s89.7024 8.704 131.7888 22.4256z m191.6416 315.8016C756.982784 701.3376 637.174784 768 512.041984 768s-244.9408-66.6624-323.4304-122.5728A1024.7168 1024.7168 0 0 1 61.174784 537.6a1029.2224 1029.2224 0 0 1 127.4368-107.8272 828.928 828.928 0 0 1 94.72-58.624A256.3072 256.3072 0 0 0 512.041984 742.4a256.3072 256.3072 0 0 0 228.7104-371.2512c35.5328 18.688 67.584 39.3216 94.72 58.624a1024.7168 1024.7168 0 0 1 127.4368 107.8272 1029.2224 1029.2224 0 0 1-127.4368 107.8272z" fill="#c6a0e6" p-id="22866"></path></svg>