<?xml version="1.0" standalone="no"?><!DOCTYPE svg PUBLIC "-//W3C//DTD SVG 1.1//EN" "http://www.w3.org/Graphics/SVG/1.1/DTD/svg11.dtd"><svg t="1697114137306" class="icon" viewBox="0 0 1024 1024" version="1.1" xmlns="http://www.w3.org/2000/svg" p-id="1717" xmlns:xlink="http://www.w3.org/1999/xlink" width="200" height="200"><path d="M536.380952 288.377905V658.285714a24.380952 24.380952 0 0 1-48.761904 0V288.377905L391.314286 384.731429a24.380952 24.380952 0 0 1-34.474667-34.474667l137.898667-137.898667a24.283429 24.283429 0 0 1 34.523428 0l137.898667 137.898667a24.380952 24.380952 0 0 1-34.474667 34.474667L536.380952 288.377905zM97.52381 731.428571a24.380952 24.380952 0 0 1 48.761904 0v97.52381a24.380952 24.380952 0 0 0 24.380953 24.380952h682.666666a24.380952 24.380952 0 0 0 24.380953-24.380952v-97.52381a24.380952 24.380952 0 0 1 48.761904 0v97.52381a73.142857 73.142857 0 0 1-73.142857 73.142857H170.666667A73.142857 73.142857 0 0 1 97.52381 828.952381v-97.52381z" fill="#86ab9e" p-id="1718"></path></svg>