<?xml version="1.0" encoding="utf-8"?>
<!-- Generator: Adobe Illustrator 25.0.0, SVG Export Plug-In . SVG Version: 6.00 Build 0)  -->
<svg version="1.1" id="图层_1" xmlns="http://www.w3.org/2000/svg" xmlns:xlink="http://www.w3.org/1999/xlink" x="0px" y="0px"
	 viewBox="0 0 16 16" style="enable-background:new 0 0 16 16;" xml:space="preserve">
<style type="text/css">
	.st0{fill:#AB9295;}
</style>
<path class="st0" d="M5,2.4c0-0.9-0.7-1.6-1.6-1.6c0,0,0,0,0,0c-0.9,0-1.6,0.7-1.6,1.6c0,0,0,0,0,0C1.9,3.3,2.6,4,3.5,4c0,0,0,0,0,0
	C4.3,4,5,3.3,5,2.4z M3.5,3C3.2,3,2.9,2.7,2.9,2.4c0-0.3,0.3-0.6,0.6-0.6C3.8,1.9,4,2.1,4,2.4C4,2.7,3.8,3,3.5,3z"/>
<path class="st0" d="M6,1.5c0,0.6,0.4,1,1,1c0.6,0,1-0.4,1-1c0,0,0,0,0,0c0-0.6-0.4-1-1-1S6,0.9,6,1.5z"/>
<path class="st0" d="M9,1.6c0,0.5,0.4,0.9,0.8,0.9c0.5,0,0.9-0.4,0.9-0.8c0,0,0,0,0,0c0-0.5-0.4-0.9-0.8-0.9C9.4,0.7,9,1.1,9,1.6
	C9,1.6,9,1.6,9,1.6z"/>
<path class="st0" d="M11.3,2.6c0,0.4,0.3,0.7,0.7,0.7s0.7-0.3,0.7-0.7s-0.3-0.7-0.7-0.7S11.3,2.2,11.3,2.6L11.3,2.6z"/>
<path class="st0" d="M13,7.5c0-0.6-0.1-1.2-0.4-1.7C12,4.5,11,3.5,8.9,3.2c-0.1,0-0.2,0-0.3,0h0c-2.4,0-3.7,1-4.3,2.6
	C3.9,6.5,3.9,7.5,4.4,8.1c0.5,0.6,1.2,1.1,1.8,1.7c0.3,0.4,0.4,0.9,0.4,1.4c0,0.2-0.3,1.3-0.3,1.4c-0.4,1.4-0.1,2.2,1.2,2.8
	c0.3,0.2,0.7,0.3,1.1,0.3c0.3,0,0.5,0,0.8-0.1C11.7,14.8,13.2,12.6,13,7.5z M9.1,14.6c-0.2,0.1-0.3,0.1-0.5,0.1
	c-0.2,0-0.5-0.1-0.7-0.2c-0.9-0.5-1-0.8-0.7-1.6c0,0,0.4-1.3,0.4-1.7c0-0.6-0.1-1.4-0.7-2.1C6.6,8.8,6.3,8.5,6,8.2
	C5.7,7.9,5.4,7.7,5.2,7.4C5,7.2,4.9,6.6,5.1,6.2c0.4-1,1.1-2,3.4-2h0c0.1,0,0.1,0,0.2,0c1.9,0.3,2.6,1.2,3,2C11.9,6.6,12,7,12,7.5
	C12.2,13,10.4,14.2,9.1,14.6z"/>
</svg>
