<?xml version="1.0" standalone="no"?><!DOCTYPE svg PUBLIC "-//W3C//DTD SVG 1.1//EN" "http://www.w3.org/Graphics/SVG/1.1/DTD/svg11.dtd"><svg t="1692237403273" class="icon" viewBox="0 0 1024 1024" version="1.1" xmlns="http://www.w3.org/2000/svg" p-id="5043" id="mx_n_1692237403274" width="16" height="16" xmlns:xlink="http://www.w3.org/1999/xlink"><path d="M867.481974 201.532658h-3.35112a110.307713 110.307713 0 0 0-39.375665 8.563974v-50.732239a109.935367 109.935367 0 0 0-162.38971-95.506932 110.12154 110.12154 0 0 0-199.717467 0 109.935367 109.935367 0 0 0-162.52934 95.506932v341.441934L246.966179 409.441753a107.04968 107.04968 0 0 0-65.905368-51.942367 104.722513 104.722513 0 0 0-80.613063 11.030772 115.148221 115.148221 0 0 0-42.261351 148.659424l0.511976 0.97741c9.308668 18.617336 45.659015 92.155811 134.742967 268.648153a540.880142 540.880142 0 0 0 158.247352 203.766738 156.664879 156.664879 0 0 0 83.77801 33.418117h254.126631a201.811918 201.811918 0 0 0 124.503431-43.099132 323.429662 323.429662 0 0 0 89.595928-114.077724A862.680787 862.680787 0 0 0 977.138081 486.564065V310.397527a109.469933 109.469933 0 0 0-109.656107-108.864869z m-381.189946 318.542611a33.418117 33.418117 0 0 0 33.557748-33.278487v-377.931912a42.680242 42.680242 0 0 1 85.407026 0v377.978455a33.557747 33.557747 0 0 0 67.068952 0V159.364393a42.680242 42.680242 0 0 1 85.360484 0v377.978455a33.557747 33.557747 0 0 0 67.068951 0V310.444071a42.680242 42.680242 0 0 1 85.360484 0v176.399254a798.125176 798.125176 0 0 1-66.324258 350.471343c-27.646743 54.828053-76.889596 120.221444-154.244626 120.221444H436.211395a117.196127 117.196127 0 0 1-51.197672-24.854143 483.724922 483.724922 0 0 1-131.671106-175.561474 42096.77451 42096.77451 0 0 1-134.696423-268.694696l-0.511977-1.67556-0.232717-0.232717a48.451616 48.451616 0 0 1 17.221036-60.878687 37.234671 37.234671 0 0 1 28.484523-3.909641 40.399618 40.399618 0 0 1 24.854143 19.874006l79.635653 136.837416c15.405845 27.926003 33.185401 41.889005 52.919777 41.889005a42.866415 42.866415 0 0 0 10.425707-1.303213c23.876733-6.004091 35.978001-28.251807 35.978001-66.138085V159.364393a42.680242 42.680242 0 0 1 85.360484 0v327.572019a33.464661 33.464661 0 0 0 33.557747 33.278487z" fill="#5cb4b4" p-id="5044"></path></svg>