<?xml version="1.0" standalone="no"?><!DOCTYPE svg PUBLIC "-//W3C//DTD SVG 1.1//EN" "http://www.w3.org/Graphics/SVG/1.1/DTD/svg11.dtd"><svg t="1691928476111" class="icon" viewBox="0 0 1024 1024" version="1.1" xmlns="http://www.w3.org/2000/svg" p-id="10477" width="16" height="16" xmlns:xlink="http://www.w3.org/1999/xlink"><path d="M373.749634 605.253228c-39.157618-3.19654-62.332535-23.174917-65.529075-63.930805v-1.59827c-3.19654-8.790486-8.790486-14.384431-19.179241-11.987026-10.388756 0-14.384431 5.593945-14.384431 14.384431V552.510314c0 35.161943 27.969727 72.721291 61.5334 79.913506 11.987026 3.19654 24.773187 7.192216 37.559347 1.59827 8.790486-3.19654 10.388756-8.790486 10.388756-15.982701s-3.19654-12.786161-10.388756-12.786161z m355.615103-147.040851c-23.174917 21.576647-46.349834 24.773187-72.721291 7.192215-10.388756-7.192216-20.777512-3.995675-26.371457 5.593946s-1.59827 19.179241 7.192216 24.773187c15.982701 10.388756 33.563673 19.179241 52.742914 17.580971 24.773187-1.59827 46.349834-10.388756 62.332534-30.367132 5.593945-7.192216 7.192216-15.982701 0-23.174917-7.192216-8.790486-15.982701-8.790486-23.174916-1.59827z" fill="#FF7675" p-id="10478"></path><path d="M543.965402 638.816901c-24.773187-3.995675-43.952428-23.174917-49.546373-46.349834-7.192216-35.161943-23.174917-51.144644-58.33686-56.738589-36.760213-7.192216-49.546374-20.777512-55.140319-58.33686-3.19654-17.580971-11.987026-31.965402-24.773187-40.755888-8.790486-5.593945-19.179241-8.790486-30.367132-8.790486-5.593945 0-11.987026 0-15.982701 1.59827-1.59827 0-3.995675 1.59827-5.593946 1.598271-3.995675 1.59827-8.790486 1.59827-14.384431 3.19654-49.546374 17.580971-83.110046 49.546374-99.092748 95.896207-7.192216 20.777512-7.192216 39.157618-5.593945 56.73859v17.580971c-1.59827 26.371457-7.192216 46.349834-19.179241 65.529075-25.572322 37.559348-56.738589 72.721291-85.507452 106.284963-5.593945 7.192216-12.786161 12.786161-19.179241 19.179242-14.384431 12.786161-26.371457 24.773187-37.559348 39.157618-20.777512 29.567997-12.786161 51.144644-3.196541 63.930804 33.563673 43.952428 72.721291 79.114371 116.673719 116.673719l3.196541 1.59827c7.192216 3.995675 12.786161 7.192216 20.777511 7.192216 5.593945 0 11.987026-1.59827 15.982701-3.995675l1.59827-1.59827c3.995675-1.59827 7.192216-3.19654 10.388756-5.593946 17.580971-10.388756 30.367132-23.174917 42.354159-36.760213l21.576646-21.576646 75.917831-68.725616 8.790486-3.995675c3.995675-3.19654 7.192216-5.593945 10.388755-8.790486 10.388756-7.192216 19.179241-14.384431 29.567998-19.179241 20.777512-8.790486 45.550698-10.388756 70.323885-11.987026 74.319561-3.19654 132.65642-51.144644 150.237392-122.267664 5.593945-21.576647 3.19654-40.755888-7.192216-55.14032-7.991351-11.987026-23.974052-20.777512-47.148969-25.572321z m14.384432 72.72129c-12.786161 52.742914-56.738589 87.904857-111.079774 90.302262h-1.59827c-27.969727 1.59827-55.140319 3.19654-84.708317 14.384431-14.384431 5.593945-26.371457 15.982701-37.559347 24.773187-3.19654 3.19654-7.192216 5.593945-10.388756 7.192216-1.59827 1.59827-3.19654 1.59827-3.19654 1.59827l-3.196541 1.59827-79.913506 71.12302c-8.790486 7.192216-17.580971 15.982701-24.773187 24.773187-11.987026 11.987026-21.576647 21.576647-33.563672 30.367132-1.59827 0-1.59827 1.59827-3.196541 1.598271h-3.19654c-39.157618-33.563673-75.917831-67.127345-106.284963-106.284964-1.59827-3.19654-3.19654-5.593945 3.995675-15.982701 7.192216-11.987026 17.580971-20.777512 29.567998-31.965402l21.576646-21.576647c30.367132-33.563673 61.5334-70.323885 88.703992-111.079773 15.982701-24.773187 24.773187-52.742914 26.371457-86.306587v-20.777512c0-14.384431 0-29.567997 3.995675-42.354158 11.987026-35.161943 35.161943-56.738589 72.721291-70.323885 3.19654-1.59827 5.593945-1.59827 8.790486-1.59827h1.59827c3.19654 0 3.995675-1.59827 7.192215-1.59827 5.593945-1.59827 11.987026-1.59827 14.384431 1.59827 3.995675 3.19654 5.593945 8.790486 7.192216 12.786161 8.790486 54.341184 36.760213 81.511776 88.703992 91.900532 17.580971 3.19654 20.777512 5.593945 24.773187 24.773187 8.790486 40.755888 42.354158 72.721291 83.110046 79.913506 10.388756 1.59827 17.580971 3.995675 20.777512 8.790485 2.397405 4.79481 2.397405 12.786161-0.799135 22.375782z m453.908714-564.189353v-3.19654l-1.59827-3.196541c-5.593945-11.987026-19.179241-27.969727-26.371457-36.760212l-30.367132-30.367133-11.987026-11.987026c-8.790486-8.790486-17.580971-17.580971-26.371457-24.773187-10.388756-5.593945-24.773187-15.982701-39.157618-26.371457-11.987026-7.192216-20.777512-11.987026-29.567997-10.388755-15.982701 3.19654-36.760213 23.174917-51.144644 39.157618l-24.773187 23.174916c-7.192216 3.995675-11.987026 10.388756-15.982701 12.786161-27.170592 29.567997-59.135995 55.939454-96.695343 80.712642-26.371457 17.580971-47.948104 24.773187-72.72129 23.174916-21.576647-1.59827-45.550698 1.59827-68.725616 10.388756-72.721291 24.773187-118.271989 109.481503-97.494477 183.801064 15.982701 59.93513 55.140319 99.092748 112.678044 112.678044 1.59827 0 3.19654 0 3.19654 1.59827 0 0 1.59827 1.59827 1.59827 3.995675 19.179241 58.336859 74.319561 102.289288 131.05815 104.686693H679.818363c62.332535 0 109.481503-27.969727 141.446906-83.110046 19.179241-31.965402 17.580971-68.725615 17.580971-99.092748 0-21.576647 3.19654-37.559348 11.987026-52.742914 39.157618-62.332535 87.904857-113.477179 131.05815-157.429607 7.192216-7.192216 14.384431-17.580971 19.179241-23.174917v-1.59827c1.59827-1.59827 1.59827-3.19654 3.196541-3.19654 7.991351-9.589621 9.589621-18.380106 7.99135-28.768862z m-44.751563 8.790486c-3.19654 3.995675-10.388756 14.384431-14.384431 19.179241-45.550698 43.952428-95.896207 99.092748-137.451231 164.621823-12.786161 20.777512-19.179241 45.550698-19.179241 75.91783 0 27.969727 1.59827 54.341184-11.987026 77.516101-23.174917 42.354158-58.336859 62.332535-104.686693 62.332535h-8.790486c-39.157618-1.59827-79.913506-35.161943-95.097072-75.917831-5.593945-17.580971-17.580971-27.969727-35.161943-31.965402-42.354158-10.388756-70.323885-39.157618-81.511776-83.110046-14.384431-52.742914 19.179241-115.075449 71.12302-132.656421 19.179241-5.593945 36.760213-8.790486 52.742914-7.192215 33.563673 3.19654 65.529075-5.593945 99.092748-29.567997 39.157618-26.371457 72.721291-54.341184 103.887558-84.708317 3.995675-3.995675 7.192216-7.192216 11.987026-8.790486l30.367132-29.567997c7.192216-8.790486 17.580971-19.179241 23.174917-23.174917h1.59827v-2.397405c7.192216 3.995675 26.371457 17.580971 33.563673 24.773187 7.192216 5.593945 15.982701 14.384431 23.174916 21.576647l3.196541 3.19654c3.995675 3.19654 7.192216 5.593945 10.388755 8.790486 10.388756 10.388756 20.777512 19.179241 29.567998 29.567997 3.995675 3.995675 10.388756 12.786161 14.384431 19.179241v2.397406z" fill="#FF7675" p-id="10479"></path></svg>