<?xml version="1.0" encoding="utf-8"?>
<!-- Generator: Adobe Illustrator 25.0.0, SVG Export Plug-In . SVG Version: 6.00 Build 0)  -->
<svg version="1.1" id="图层_1" xmlns="http://www.w3.org/2000/svg" xmlns:xlink="http://www.w3.org/1999/xlink" x="0px" y="0px"
	 viewBox="0 0 40 40" style="enable-background:new 0 0 40 40;" xml:space="preserve">
<style type="text/css">
	.st0{fill:#FFFFFF;stroke:#787878;stroke-miterlimit:10;}
	.st1{fill:#787878;}
	.st2{fill:none;stroke:#787878;stroke-width:0.75;stroke-miterlimit:10;}
	.st3{fill:#93E0FF;}
</style>
<path class="st0" d="M34.4,35.3H5.6c-0.6,0-1.3-0.6-1.3-1.3V11.6c0-0.6,0.6-1.3,1.3-1.3h28.8c0.6,0,1.3,0.6,1.3,1.3V34
	C35.7,34.7,35.2,35.3,34.4,35.3z"/>
<path class="st1" d="M39.5,6.1h-39C0.2,6.1,0,5.9,0,5.6l0-0.6c0-0.3,0.2-0.5,0.5-0.5h39c0.3,0,0.5,0.2,0.5,0.5v0.6
	C40,5.9,39.8,6.1,39.5,6.1z"/>
<circle class="st2" cx="20" cy="3.8" r="1.7"/>
<rect x="9.1" y="22.8" class="st3" width="2.6" height="9.4"/>
<rect x="18.7" y="20" class="st3" width="2.6" height="12.2"/>
<rect x="28.3" y="14.1" class="st3" width="2.6" height="18"/>
</svg>
