<?xml version="1.0" standalone="no"?><!DOCTYPE svg PUBLIC "-//W3C//DTD SVG 1.1//EN" "http://www.w3.org/Graphics/SVG/1.1/DTD/svg11.dtd"><svg t="1690124419287" class="icon" viewBox="0 0 1024 1024" version="1.1" xmlns="http://www.w3.org/2000/svg" p-id="26711" xmlns:xlink="http://www.w3.org/1999/xlink" width="200" height="200"><path d="M921.6 819.2h-102.4v-102.4h102.4V102.4H307.2v102.4H204.8V102.4c0-56.32 46.08-102.4 102.4-102.4h614.4c56.32 0 102.4 46.08 102.4 102.4v614.4c0 56.32-46.08 102.4-102.4 102.4z" fill="#9c8471" p-id="26712"></path><path d="M716.8 307.2v614.4H102.4V307.2h614.4m0-102.4H102.4C46.08 204.8 0 250.88 0 307.2v614.4c0 56.32 46.08 102.4 102.4 102.4h614.4c56.32 0 102.4-46.08 102.4-102.4V307.2c0-56.32-46.08-102.4-102.4-102.4z" fill="#9c8471" p-id="26713"></path><path d="M409.6 409.6c-25.6 0-51.2 25.6-51.2 51.2v102.4H256c-25.6 0-51.2 25.6-51.2 51.2s25.6 51.2 51.2 51.2h102.4v102.4c0 25.6 25.6 51.2 51.2 51.2s51.2-25.6 51.2-51.2v-102.4h102.4c25.6 0 51.2-25.6 51.2-51.2s-25.6-51.2-51.2-51.2H460.8V460.8c0-25.6-25.6-51.2-51.2-51.2z" fill="#9c8471" p-id="26714"></path></svg>