<?xml version="1.0" standalone="no"?><!DOCTYPE svg PUBLIC "-//W3C//DTD SVG 1.1//EN" "http://www.w3.org/Graphics/SVG/1.1/DTD/svg11.dtd"><svg t="1691132613486" class="icon" viewBox="0 0 1024 1024" version="1.1" xmlns="http://www.w3.org/2000/svg" p-id="3847" xmlns:xlink="http://www.w3.org/1999/xlink" width="16" height="16"><path d="M889.3 470.5H553.5V134.7c0-20.8-16.9-37.7-37.7-37.7h-7.5c-20.8 0-37.7 16.9-37.7 37.7v335.8H134.7c-20.8 0-37.7 16.9-37.7 37.7v7.5c0 20.8 16.9 37.7 37.7 37.7h335.8v335.8c0 20.8 16.9 37.7 37.7 37.7h7.5c20.8 0 37.7-16.9 37.7-37.7V553.5h335.8c20.8 0 37.7-16.9 37.7-37.7v-7.5c0.1-20.9-16.8-37.8-37.6-37.8z" fill="#e6e6e6" p-id="3848"></path></svg>