<?xml version="1.0" encoding="utf-8"?>
<!-- Generator: Adobe Illustrator 22.1.0, SVG Export Plug-In . SVG Version: 6.00 Build 0)  -->
<svg version="1.2" baseProfile="tiny" id="图层_1"
	 xmlns="http://www.w3.org/2000/svg" xmlns:xlink="http://www.w3.org/1999/xlink" x="0px" y="0px" viewBox="0 0 400 400"
	 xml:space="preserve">
<g>
	
		<rect x="139.6" y="20.9" fill="#FEC930" stroke="#FFFFFF" stroke-width="4.4243" stroke-miterlimit="10" width="115.2" height="119.3"/>
	<path fill="#DCDCDC" stroke="#FFFFFF" stroke-width="4.4243" stroke-miterlimit="10" d="M254.2,21.4v118.1h-114V21.4H254.2
		 M255.2,20.3H139v120.3h116.1V20.3L255.2,20.3z"/>
</g>
<rect x="25.8" y="259.4" fill="#FD6263" stroke="#FFFFFF" stroke-width="4.4243" stroke-miterlimit="10" width="116.1" height="120.3"/>
<rect x="258.1" y="259.4" fill="#4EBFFF" stroke="#FFFFFF" stroke-width="4.4243" stroke-miterlimit="10" width="116.1" height="120.3"/>
<path fill="none" stroke="#000000" stroke-width="2.9557" stroke-miterlimit="10" d="M172.4,238.4"/>
<line fill="none" stroke="#DCDCDC" stroke-width="7.3892" stroke-miterlimit="10" x1="200" y1="140.6" x2="200" y2="206.7"/>
<path fill="none" stroke="#DCDCDC" stroke-width="7.3892" stroke-miterlimit="10" d="M83.9,259.4v-48.2c0-3.3,2.6-6,5.8-6H200"/>
<path fill="none" stroke="#DCDCDC" stroke-width="7.3892" stroke-miterlimit="10" d="M316.1,259.2v-46.5c0-4.2-3.2-7.5-7.2-7.5
	H200.2c-0.2,0-0.2,0.2-0.2,0.2"/>
</svg>
