<?xml version="1.0" encoding="utf-8"?>
<!-- Generator: Adobe Illustrator 22.1.0, SVG Export Plug-In . SVG Version: 6.00 Build 0)  -->
<svg version="1.2" baseProfile="tiny" id="图层_1"
	 xmlns="http://www.w3.org/2000/svg" xmlns:xlink="http://www.w3.org/1999/xlink" x="0px" y="0px" viewBox="0 0 400 400"
	 xml:space="preserve">
<g>
	<rect x="158.4" y="73.4" fill="#FEC930" width="79.3" height="79.3"/>
	<path fill="#DCDCDC" d="M237.3,73.8v78.5h-78.5V73.8H237.3 M238,73h-80v80h80V73L238,73z"/>
</g>
<rect x="80" y="232" fill="#FD6263" width="80" height="80"/>
<rect x="240" y="232" fill="#4EBFFF" width="80" height="80"/>
<path fill="none" stroke="#000000" stroke-width="2" stroke-miterlimit="10" d="M181,218"/>
<line fill="none" stroke="#DCDCDC" stroke-width="5" stroke-miterlimit="10" x1="200" y1="153" x2="200" y2="197"/>
<path fill="none" stroke="#DCDCDC" stroke-width="5" stroke-miterlimit="10" d="M120,232v-32c0-2.2,1.8-4,4-4h76"/>
<path fill="none" stroke="#DCDCDC" stroke-width="5" stroke-miterlimit="10" d="M280,231.9V201c0-2.8-2.2-5-5-5h-74.9
	c-0.1,0-0.1,0.1-0.1,0.1"/>
</svg>
