<?xml version="1.0" encoding="utf-8"?>
<!-- Generator: Adobe Illustrator 22.1.0, SVG Export Plug-In . SVG Version: 6.00 Build 0)  -->
<svg version="1.2" baseProfile="tiny" id="图层_1"
	 xmlns="http://www.w3.org/2000/svg" xmlns:xlink="http://www.w3.org/1999/xlink" x="0px" y="0px" viewBox="0 0 400 400"
	 xml:space="preserve">
<path fill="#52B5A4" d="M84.5,400H5c-2.8,0-5-2.2-5-5V16.3c0-2.8,2.2-5,5-5h79.5c2.8,0,5,2.2,5,5V395C89.5,397.8,87.3,400,84.5,400z
	"/>
<g>
	<rect x="20.7" y="33.7" fill="#FDFDFD" width="47.8" height="136.2"/>
	<path d="M66,36.2v131.2H23.2V36.2H66 M71,31.2H18.2v141.2H71V31.2L71,31.2z"/>
</g>
<ellipse fill="#FDFDFD" stroke="#000000" stroke-width="5" stroke-miterlimit="10" cx="44.8" cy="344.3" rx="26.3" ry="26.8"/>
<path fill="#ECB867" d="M178.9,399H99.4c-2.8,0-5-2.2-5-5V15.3c0-2.8,2.2-5,5-5h79.5c2.8,0,5,2.2,5,5V394
	C183.9,396.8,181.7,399,178.9,399z"/>
<g>
	<rect x="115.1" y="32.7" fill="#FDFDFD" width="47.8" height="136.2"/>
	<path d="M160.4,35.2v131.2h-42.8V35.2H160.4 M165.4,30.2h-52.8v141.2h52.8V30.2L165.4,30.2z"/>
</g>
<ellipse fill="#FDFDFD" stroke="#000000" stroke-width="5" stroke-miterlimit="10" cx="139.2" cy="343.3" rx="26.3" ry="26.8"/>
<path fill="#FFFFFF" d="M396.8,365.5l-75,27.9c-2.5,0.9-5.3-0.4-6.2-3L188.8,34.5c-0.9-2.6,0.4-5.4,2.9-6.4l75-27.9
	c2.5-0.9,5.3,0.4,6.2,3l126.8,355.9C400.6,361.7,399.3,364.6,396.8,365.5z"/>
<g>
	<polygon fill="#FDFDFD" points="214.1,43.7 259,27 304.6,154.9 259.6,171.6 	"/>
	<path d="M257.5,30.2l43.9,123.2l-40.3,15L217.3,45.2L257.5,30.2 M260.5,23.7l-49.6,18.5l47.3,132.6l49.6-18.5L260.5,23.7
		L260.5,23.7z"/>
</g>
<ellipse fill="#FDFDFD" stroke="#000000" stroke-width="5" stroke-miterlimit="10" cx="340.7" cy="327.2" rx="26.3" ry="26.8"/>
</svg>
