<?xml version="1.0" encoding="utf-8"?>
<!-- Generator: Adobe Illustrator 25.0.0, SVG Export Plug-In . SVG Version: 6.00 Build 0)  -->
<svg version="1.1" id="图层_1" xmlns="http://www.w3.org/2000/svg" xmlns:xlink="http://www.w3.org/1999/xlink" x="0px" y="0px"
	 viewBox="0 0 48 48" style="enable-background:new 0 0 48 48;" xml:space="preserve">
<style type="text/css">
	.st0{fill:#969696;}
</style>
<path class="st0" d="M40.1,6.1H7.9c-1,0-1.8,0.8-1.8,1.8V33c0,1,0.8,1.8,1.8,1.8c0,0,0,0,0,0h10.7c1,0,1.8-0.8,1.8-1.8
	c0-1-0.8-1.8-1.8-1.8h-9V9.7h28.7v12.5c0,1,0.8,1.8,1.8,1.8c1,0,1.8-0.8,1.8-1.8V7.9C41.9,6.9,41.1,6.1,40.1,6.1
	C40.1,6.1,40.1,6.1,40.1,6.1z"/>
<path class="st0" d="M24.7,19.2c-0.4-0.3-1-0.2-1.3,0.2c-0.1,0.2-0.2,0.4-0.2,0.7l2.9,21.1c0,0.3,0.3,0.6,0.6,0.7h0.3
	c0.3,0,0.5-0.1,0.7-0.3l4.2-4.7l2.3,4c0.5,0.9,1.5,1.2,2.4,0.8c0.9-0.5,1.2-1.5,0.8-2.4c0,0,0-0.1-0.1-0.1L35,35.1l6.2-1.3
	c0.5-0.1,0.8-0.6,0.7-1.1c0-0.2-0.2-0.4-0.3-0.5L24.7,19.2z"/>
</svg>
