<?xml version="1.0" standalone="no"?><!DOCTYPE svg PUBLIC "-//W3C//DTD SVG 1.1//EN" "http://www.w3.org/Graphics/SVG/1.1/DTD/svg11.dtd"><svg t="1691306092657" class="icon" viewBox="0 0 1024 1024" version="1.1" xmlns="http://www.w3.org/2000/svg" p-id="7461" width="16" height="16" xmlns:xlink="http://www.w3.org/1999/xlink"><path d="M445.488762 765.123048V367.37219a41.935238 41.935238 0 0 0-83.870476 0v397.750858a41.935238 41.935238 0 0 0 83.870476 0z m392.045714-438.759619a41.935238 41.935238 0 0 0-41.935238 41.935238v541.45219a30.378667 30.378667 0 0 1-30.329905 30.378667H258.974476a30.378667 30.378667 0 0 1-30.329905-30.378667V366.83581a41.984 41.984 0 0 0-83.919238 0v542.915047A114.395429 114.395429 0 0 0 258.925714 1024h506.294857a114.395429 114.395429 0 0 0 114.249143-114.249143V368.298667a41.984 41.984 0 0 0-41.935238-41.935238z m-175.104 438.759619V367.37219a41.935238 41.935238 0 0 0-83.870476 0v397.750858a41.935238 41.935238 0 0 0 83.870476 0zM982.064762 180.809143h-174.957714V114.249143A114.005333 114.005333 0 0 0 693.638095 0H331.190857A114.395429 114.395429 0 0 0 216.990476 114.249143v66.56H41.984a41.935238 41.935238 0 0 0 0 83.870476h940.129524a41.984 41.984 0 0 0 0-83.870476z m-258.925714 0H300.860952V114.249143c0-16.725333 13.604571-30.378667 30.329905-30.378667h362.447238c16.579048 0 29.549714 13.312 29.549715 30.378667v66.56z" fill="#cccccc" p-id="7462"></path></svg>