<?xml version="1.0" standalone="no"?><!DOCTYPE svg PUBLIC "-//W3C//DTD SVG 1.1//EN" "http://www.w3.org/Graphics/SVG/1.1/DTD/svg11.dtd"><svg t="1690358456393" class="icon" viewBox="0 0 1137 1024" version="1.1" xmlns="http://www.w3.org/2000/svg" p-id="3525" xmlns:xlink="http://www.w3.org/1999/xlink" width="222.0703125" height="200"><path d="M805.88195 284.333055c0.340989-5.683149 0.795641-11.650455 1.307125-17.901919l4.035035-240.965514a25.744665 25.744665 0 0 1 16.651627-23.357742 25.290013 25.290013 0 0 1 27.676935 6.819779l276.030542 319.336137c5.683149 7.61542 6.706116 17.845088 2.67108 26.483474a25.460507 25.460507 0 0 1-21.993786 14.719355h-192.886074a42.850943 42.850943 0 0 1-10.456994 1.250293H43.032872A43.078269 43.078269 0 0 1 0.068267 327.524986c0-23.869225 19.209043-43.191932 42.964605-43.191931h762.849078z m-480.794397 370.20032h767.963912c23.698731 0 42.964606 19.322706 42.964605 43.191931s-19.265875 43.191932-42.964605 43.191932H330.827533l-1.250293 16.651626-4.035035 240.965514a25.744665 25.744665 0 0 1-16.651627 23.357742 25.290013 25.290013 0 0 1-27.676935-6.819779L5.183101 695.679373a25.971991 25.971991 0 0 1-2.67108-26.483474 25.460507 25.460507 0 0 1 21.993786-14.719356H325.144384z" fill="#9c8471" p-id="3526"></path></svg>