<?xml version="1.0" standalone="no"?><!DOCTYPE svg PUBLIC "-//W3C//DTD SVG 1.1//EN" "http://www.w3.org/Graphics/SVG/1.1/DTD/svg11.dtd"><svg t="1691760354093" class="icon" viewBox="0 0 1024 1024" version="1.1" xmlns="http://www.w3.org/2000/svg" p-id="2064" width="16" height="16" xmlns:xlink="http://www.w3.org/1999/xlink"><path d="M781.9 856.9c-4.2 4.2-9.8 6.5-15.6 6.5-5.8 0-11.5-2.4-15.6-6.5L617.4 723.8c-4.2-4.2-6.5-9.7-6.5-15.6s2.3-11.5 6.5-15.6c4.2-4.2 9.7-6.5 15.7-6.5 5.9 0 11.5 2.3 15.7 6.5l55.8 55.8 42.6 42.6V356.8c0-12.2 9.9-22.1 22.1-22.1s22.1 9.9 22.1 22.1v428.1l42.6-42.7 49.8-49.8c4.2-4.2 9.7-6.5 15.7-6.5 1.9 0 3.9 0.3 5.7 0.8 7.6 2 13.6 8 15.7 15.7 2 7.6-0.2 15.8-5.7 21.4L781.9 856.9zM462.4 817H89c-13.7 0-25 11.2-25 25 0 13.7 11.2 25 25 25h373.4c13.7 0 25-11.2 25-25-0.1-13.7-11.3-25-25-25zM462.4 486.6H89c-13.7 0-25 11.2-25 25 0 13.7 11.2 25 25 25h373.4c13.7 0 25-11.2 25-25-0.1-13.7-11.3-25-25-25zM935 157H89c-13.7 0-25 11.2-25 25 0 13.7 11.2 25 25 25h846c13.7 0 25-11.2 25-25s-11.2-25-25-25z" fill="#798786" p-id="2065"></path></svg>