<?xml version="1.0" encoding="utf-8"?>
<!-- Generator: Adobe Illustrator 22.1.0, SVG Export Plug-In . SVG Version: 6.00 Build 0)  -->
<svg version="1.2" baseProfile="tiny" id="图层_1"
	 xmlns="http://www.w3.org/2000/svg" xmlns:xlink="http://www.w3.org/1999/xlink" x="0px" y="0px" viewBox="0 0 16 16"
	 xml:space="preserve">
<path fill="#666666" d="M13.6,13l-2.1-2.1c0.8-0.9,1.4-2.2,1.4-3.5c0-2.9-2.4-5.3-5.3-5.3c-2.9,0-5.3,2.4-5.3,5.3s2.4,5.3,5.3,5.3
	c1.2,0,2.3-0.4,3.2-1.1l2.2,2.2c0.1,0.1,0.2,0.1,0.4,0.1c0.1,0,0.3,0,0.4-0.1C13.8,13.6,13.8,13.2,13.6,13z M3.3,7.4
	c0-2.4,1.9-4.3,4.3-4.3s4.3,1.9,4.3,4.3s-1.9,4.3-4.3,4.3S3.3,9.7,3.3,7.4z"/>
<path fill="#666666" d="M4.9,8.2C4.7,8.2,4.4,8,4.4,7.7c0-1.9,1.6-3.5,3.5-3.5c0.3,0,0.5,0.2,0.5,0.5S8.2,5.3,7.9,5.3
	c-1.4,0-2.5,1.1-2.5,2.5C5.4,8,5.2,8.2,4.9,8.2z"/>
</svg>
