<?xml version="1.0" standalone="no"?><!DOCTYPE svg PUBLIC "-//W3C//DTD SVG 1.1//EN" "http://www.w3.org/Graphics/SVG/1.1/DTD/svg11.dtd"><svg t="1691068911182" class="icon" viewBox="0 0 1024 1024" version="1.1" xmlns="http://www.w3.org/2000/svg" p-id="9924" xmlns:xlink="http://www.w3.org/1999/xlink" width="16" height="16"><path d="M809.813333 913.066667c-23.466667 0-42.666667-19.2-42.666666-42.666667 0-140.8-114.346667-255.146667-255.146667-255.146667-140.8 0-255.146667 114.346667-255.146667 255.146667 0 23.466667-19.2 42.666667-42.666666 42.666667s-42.666667-19.2-42.666667-42.666667c0-187.733333 152.746667-340.48 340.48-340.48s340.48 152.746667 340.48 340.48c0 23.893333-19.2 42.666667-42.666667 42.666667z" fill="#8a8a8a" p-id="9925"></path><path d="M512 615.68c-132.693333 0-240.213333-107.946667-240.213333-240.213333 0-132.693333 107.946667-240.64 240.213333-240.64 132.693333 0 240.64 107.946667 240.64 240.64-0.426667 132.266667-107.946667 240.213333-240.64 240.213333z m0-395.52c-85.333333 0-154.88 69.546667-154.88 155.306667S426.666667 530.346667 512 530.346667s155.306667-69.546667 155.306667-154.88S597.333333 220.16 512 220.16z" fill="#8a8a8a" p-id="9926"></path></svg>