<?xml version="1.0" standalone="no"?><!DOCTYPE svg PUBLIC "-//W3C//DTD SVG 1.1//EN" "http://www.w3.org/Graphics/SVG/1.1/DTD/svg11.dtd"><svg t="1690358512174" class="icon" viewBox="0 0 1024 1024" version="1.1" xmlns="http://www.w3.org/2000/svg" p-id="5459" xmlns:xlink="http://www.w3.org/1999/xlink" width="200" height="200"><path d="M858.551 669.761c-62.703 0-117.256 34.887-145.316 86.306l-261.03-67.903a229.83 229.83 0 0 0 0.659-17.4c0-50.966-16.843-97.996-45.26-135.836l245.924-264.061c18.286 8.97 38.847 14.014 60.588 14.014 76.086 0 137.758-61.678 137.758-137.764 0-76.08-61.672-137.758-137.758-137.758-76.083 0-137.761 61.678-137.761 137.758 0 25.235 6.79 48.881 18.635 69.222L349.067 480.396c-35.341-22.814-77.439-36.061-122.633-36.061C101.381 444.335 0.006 545.711 0.006 670.763c0 125.053 101.375 226.429 226.428 226.429 91.19 0 169.776-53.913 205.658-131.597l261.043 67.906c-0.006 0.566-0.021 1.131-0.021 1.698 0 91.37 74.069 165.442 165.438 165.442 91.372 0 165.442-74.072 165.442-165.442-0.001-91.368-74.071-165.438-165.443-165.438z" fill="#9c8471" p-id="5460"></path></svg>