<?xml version="1.0" encoding="utf-8"?>
<!-- Generator: Adobe Illustrator 22.1.0, SVG Export Plug-In . SVG Version: 6.00 Build 0)  -->
<svg version="1.2" baseProfile="tiny" id="图层_1"
	 xmlns="http://www.w3.org/2000/svg" xmlns:xlink="http://www.w3.org/1999/xlink" x="0px" y="0px" viewBox="0 0 400 400"
	 xml:space="preserve">
<path fill="#89D7EE" d="M290,134c36.4,0,66,29.6,66,66c0,36.4-29.6,66-66,66H110c-36.4,0-66-29.6-66-66c0-36.4,29.6-66,66-66H290
	 M290,110H110c-49.7,0-90,40.3-90,90v0c0,49.7,40.3,90,90,90h180c49.7,0,90-40.3,90-90v0C380,150.3,339.7,110,290,110L290,110z"/>
</svg>
